FILE "Hi-Octane (Japan).bin" BINARY
  TRACK 01 MODE2/2352
    INDEX 01 00:00:00
  TRACK 02 AUDIO
    INDEX 00 01:13:70
    INDEX 01 01:15:70
  TRACK 03 AUDIO
    INDEX 00 11:24:62
    INDEX 01 11:26:62
  TRACK 04 AUDIO
    INDEX 00 22:30:06
    INDEX 01 22:32:06
